<svg width="28" height="27" viewBox="0 0 28 27" fill="none" xmlns="http://www.w3.org/2000/svg">
<path d="M14 2.25C10.9058 2.25 7.93839 3.43526 5.75046 5.54505C3.56254 7.65483 2.33337 10.5163 2.33337 13.5C2.33337 16.4837 3.56254 19.3452 5.75046 21.455C7.93839 23.5647 10.9058 24.75 14 24.75C17.0942 24.75 20.0617 23.5647 22.2496 21.455C24.4375 19.3452 25.6667 16.4837 25.6667 13.5C25.6667 10.5163 24.4375 7.65483 22.2496 5.54505C20.0617 3.43526 17.0942 2.25 14 2.25V2.25Z" fill="black"/>
<path d="M19.8042 8.4375L17.619 19.1959C17.619 19.1959 17.5251 19.6875 16.8928 19.6875C16.5568 19.6875 16.3835 19.5334 16.3835 19.5334L11.6504 15.7461L9.33454 14.6205L6.36246 13.8583C6.36246 13.8583 5.83337 13.7109 5.83337 13.2891C5.83337 12.9375 6.37762 12.7699 6.37762 12.7699L18.812 8.00663C18.8114 8.00606 19.1917 7.87444 19.4688 7.875C19.6391 7.875 19.8334 7.94531 19.8334 8.15625C19.8334 8.29688 19.8042 8.4375 19.8042 8.4375Z" fill="white"/>
<path d="M13.4167 17.159L11.4182 19.0569C11.4182 19.0569 11.3312 19.1216 11.2152 19.1244C11.1749 19.1255 11.1317 19.1193 11.0874 19.1002L11.6497 15.7449L13.4167 17.159Z" fill="#B0BEC5"/>
<path d="M17.44 10.2352C17.3414 10.1114 17.1594 10.0889 17.031 10.1829L9.33337 14.6249C9.33337 14.6249 10.5619 17.9392 10.7491 18.5129C10.937 19.0873 11.0875 19.1008 11.0875 19.1008L11.6498 15.7454L17.3851 10.6289C17.5135 10.535 17.5374 10.3589 17.44 10.2352Z" fill="#CFD8DC"/>
</svg>
