<svg width="25" height="25" viewBox="0 0 25 25" fill="none" xmlns="http://www.w3.org/2000/svg">
<path d="M7.6648 0.899902C3.93444 0.899902 0.900024 3.93712 0.900024 7.66846V17.3351C0.900024 21.0655 3.93725 24.0999 7.66858 24.0999H17.3352C21.0656 24.0999 24.1 21.0627 24.1 17.3313V7.66468C24.1 3.93431 21.0628 0.899902 17.3315 0.899902H7.6648ZM19.2667 4.76657C19.8003 4.76657 20.2334 5.19964 20.2334 5.73324C20.2334 6.26684 19.8003 6.6999 19.2667 6.6999C18.7331 6.6999 18.3 6.26684 18.3 5.73324C18.3 5.19964 18.7331 4.76657 19.2667 4.76657ZM12.5 6.6999C15.6987 6.6999 18.3 9.3012 18.3 12.4999C18.3 15.6986 15.6987 18.2999 12.5 18.2999C9.30132 18.2999 6.70002 15.6986 6.70002 12.4999C6.70002 9.3012 9.30132 6.6999 12.5 6.6999ZM12.5 8.63324C11.4745 8.63324 10.491 9.04062 9.76588 9.76576C9.04074 10.4909 8.63336 11.4744 8.63336 12.4999C8.63336 13.5254 9.04074 14.5089 9.76588 15.234C10.491 15.9592 11.4745 16.3666 12.5 16.3666C13.5255 16.3666 14.509 15.9592 15.2342 15.234C15.9593 14.5089 16.3667 13.5254 16.3667 12.4999C16.3667 11.4744 15.9593 10.4909 15.2342 9.76576C14.509 9.04062 13.5255 8.63324 12.5 8.63324Z" fill="black"/>
</svg>
