<svg width="25" height="23" viewBox="0 0 25 23" fill="none" xmlns="http://www.w3.org/2000/svg">
<path d="M24.882 14.9758C24.9546 15.0499 24.9953 15.1506 24.9953 15.2555C24.9953 15.3603 24.9546 15.4609 24.882 15.5351L23 17.9146C22.8484 18.0687 22.1516 18.0687 22 17.9146L20.2384 15.5351C20.0918 15.3799 20.0941 15.1333 20.2433 14.9807C20.3926 14.8282 20.634 14.8259 20.7858 14.9758L21.6732 15.8825V1.97412L20.7858 2.88079C20.634 3.03068 20.3926 3.02838 20.2433 2.87586C20.0941 2.72333 20.0918 2.4767 20.2384 2.32151L22 0.11559C22.1516 -0.0385302 22.8484 -0.0385297 23 0.11559L24.882 2.32151C24.9566 2.3953 24.9991 2.49646 25 2.60255C25.001 2.70866 24.9601 2.81069 24.8867 2.88555C24.8133 2.96058 24.7135 3.00241 24.6097 3.00135C24.5058 3.00048 24.4069 2.95705 24.3346 2.88078L23.4473 1.9741V15.8824L24.3346 14.9758C24.4072 14.9017 24.5056 14.86 24.6083 14.86C24.7109 14.86 24.8094 14.9017 24.882 14.9758ZM19 19.9487C18.9805 19.9005 18.5361 19.4771 18.5 19.4402L16.9156 18.1395C16.7638 17.9897 16.5224 17.992 16.3731 18.1445C16.2239 18.297 16.2216 18.5436 16.3682 18.6988L17.2556 19.6055H2.09558L2.98294 18.6988C3.12963 18.5436 3.12738 18.297 2.9781 18.1445C2.82882 17.9919 2.58746 17.9897 2.43556 18.1395L0.5 19.9487C0.349515 20.1036 0.349515 20.811 0.5 20.9659L2.43556 22.8796C2.58744 23.0295 2.8288 23.0274 2.9781 22.8749C3.1274 22.7223 3.12963 22.4757 2.98294 22.3205L2.09558 21.4134H17.2556L16.3682 22.3201C16.2936 22.394 16.2511 22.495 16.2502 22.6012C16.2493 22.7073 16.2902 22.8093 16.3636 22.8842C16.4369 22.9592 16.5368 23.001 16.6405 23C16.7444 22.9991 16.8434 22.9557 16.9156 22.8794C17.7634 22.1852 18.2629 21.8339 19 20.9659C19.1275 20.8228 19.0948 20.0352 19 19.9487ZM19.1113 3.42189L12.7549 0.747681C12.8305 1.63036 12.5401 2.50495 11.9544 3.15832C11.3686 3.81169 10.5415 4.1838 9.67426 4.18398C8.80713 4.18416 7.9797 3.81255 7.39365 3.15935C6.80759 2.50635 6.51682 1.63194 6.59215 0.749263L0.239746 3.42189C0.0591965 3.49798 -0.0377304 3.6994 0.013754 3.89181L1.1748 8.24171C1.20349 8.34886 1.27502 8.4389 1.37195 8.48957C1.46888 8.54041 1.58204 8.54694 1.68398 8.50793L4.25731 7.52179V16.8372C4.25731 16.942 4.29808 17.0426 4.37066 17.1168C4.44322 17.1909 4.5417 17.2325 4.64433 17.2325H14.7068C14.8094 17.2325 14.9079 17.1909 14.9804 17.1168C15.053 17.0426 15.0939 16.942 15.0939 16.8372V7.52179L17.6668 8.50793C17.7689 8.54695 17.8821 8.54023 17.979 8.48957C18.0759 8.4389 18.1476 8.34886 18.1764 8.24171L19.3374 3.89181C19.3886 3.69938 19.2917 3.49796 19.1113 3.42189Z" fill="#FEAC92"/>
</svg>
